<?xml version="1.0" encoding="utf-8"?>
<!-- Generator: Adobe Illustrator 25.4.1, SVG Export Plug-In . SVG Version: 6.00 Build 0)  -->
<svg version="1.1" id="图层_1" xmlns="http://www.w3.org/2000/svg" xmlns:xlink="http://www.w3.org/1999/xlink" x="0px" y="0px"
	 viewBox="0 0 768 768" style="enable-background:new 0 0 768 768;" xml:space="preserve">
<style type="text/css">
	.st0{fill:#FFFFFF;}
</style>
<path class="st0" d="M0,0v740.3c8.9,10.6,19.5,19.5,30.8,27.7H768V0H0z M474.6,137.5c0.5,1.9,0.8,3.9,0.8,5.9
	c0.1,66.5,0.3,133,0.4,199.4v5.1l1,0.4v0c6.9-6.6,13.8-13.3,20.9-19.7c5.3-4.7,10.6-9.6,16.6-13.3c18.7-11.6,38.7-11.8,57.8-2.4
	c19.3,9.5,29.6,26.3,30.3,48.3c0.7,21.7-8.8,38-24.7,52c-15.8,13.8-30.7,28.7-46,43c-16.1,15-32.2,30-48.2,45
	c-17.1,16-34,32-51.1,47.9c-5.3,4.9-11,9.4-16.3,14.3c-1.3,1.3-2.3,2.9-2.9,4.6c-2.2,4.6-5.6,6.6-10.7,6.6
	c-26.7-0.1-53.5-0.1-80.2,0c-4.6,0-9.2,0.4-13.8,0.6c-5.1,0.2-6.7-1.5-5.2-6.6s3.3-10.2,5-15.2c6.5-20,13-39.9,19.6-59.9
	c2.3-6.8,4.3-13.8,7.4-20.2c1.5-3.1,5.2-5.2,7.9-7.7c23.1-20.8,46.4-41.4,69.4-62.3c11.2-10.1,22-20.7,32.9-31.1
	c1-1.1,1.5-2.4,1.5-3.8c0-51,0.1-102-0.1-153c-0.1-24.7-0.7-49.5-1-74.2c-0.1-6.9,5-13.3,11.3-14.3
	C465.2,125.6,472.8,130.1,474.6,137.5z M544.5,201c0.3-9,5.2-14.3,14.1-15.4c7.4-1,15.1,5.8,15.2,13.6c0.1,9.5,0,19,0,29h7.9
	c6.4,0,12.7-0.1,19.1,0c4.5,0.1,8.4,3,9.8,7.2c4.2,12.5-3.3,18.6-13,18.2c-7.8-0.3-15.4-0.1-23.8-0.1l0,0c0,7.6,0.1,14.4,0,21.2
	c-0.1,9.1-5.5,14.7-13.8,14.7c-9.3,0-15.1-5.6-15.3-14.6c-0.1-5.9-0.3-11.7-0.5-17.6c0-1.1-0.2-2.2-0.4-3.8h-25
	c-2.4,0.1-4.7,0-7.1-0.4c-6.7-1.5-9-7.2-8.6-13.1c0.5-6.3,3.2-11.1,11.2-11.6c7.5-0.5,15-0.2,22.5-0.3h7.7V216
	C544.5,211,544.4,206,544.5,201z M261.5,370.6c24.6,0,49.3,0,73.9,0c5.1-0.1,9.8,3,11.7,7.8c2.1,5.6,1.4,12-2.8,14.7
	c-3.5,2.1-7.4,3.3-11.5,3.4c-32.9,0.2-65.7,0.1-98.6,0.1c-15.2,0-30.5,0-45.7,0.1c-7.2,0-11.8-4.4-12-11.9
	c-0.2-8.4,1.9-12.1,7.9-13.8c1.1-0.3,2.2-0.4,3.3-0.4L261.5,370.6L261.5,370.6z M302.6,350.9L302.6,350.9c-38.1,0-76.2,0-114.4,0
	c-9,0-12.2-4.5-12.5-11.9c-0.5-10.2,5.9-14,12.9-14c44,0.2,88,0.3,132,0.3c28.5,0,57-0.2,85.5-0.2c4.7,0,9.5,0.2,14.2,0.6
	c3.6,0.2,6.7,2.5,8.1,5.8c4,8.7,1,16.8-7,19c-1,0.3-1.9,0.4-2.9,0.4H302.6z M188.4,480.7c14.6,0.1,29.2,0,43.8,0.1
	c6.9,0.1,11.5,4.1,12.7,10.8c1.2,6.3-2.3,12.5-8.3,14.7c-1.5,0.5-3.1,0.7-4.8,0.7h-21.7v-0.1c-7.4,0-14.6,0.1-22.1,0
	s-12.5-5.4-12.4-12.9C175.9,485.6,180.7,480.7,188.4,480.7z M178.2,544.4c1.9-2,5.2-4,7.9-4c21.7-0.2,43.5,0.1,65.2,0.2
	c4.5,0,9,0.3,13.5,0.1c8.1-0.2,12.5,6,12.3,13c-0.2,8-4.6,12.7-12.1,12.9c-6.5,0.2-13,0.1-19.5,0.1h-19.5c-12.9,0-25.7,0-38.6,0
	c-5.6,0-9.6-2.6-11-8.2C175.1,553.7,174.5,548.4,178.2,544.4z M270.6,446.8h-21.7v-0.4h0c-20.4,0-40.7,0.1-61.1,0
	c-7.5,0-12.1-5.2-11.8-12.8c0.3-8.8,4.5-12.8,13.3-12.8c38.6,0,77.2,0,115.8,0c2.7,0,5.5,0.3,8.1,0.7c7.8,1.3,10.6,5.9,10.3,13.1
	c-0.3,7.6-5.3,12.1-12.9,12.1C297.4,446.9,284,446.8,270.6,446.8z M354,91c2.7-3.4,6.8-4.1,10.8-4.1c25,0,50-0.1,75-0.1
	c5.5,0,10,1.9,12.5,7.1c2.6,5.5,1.6,10.8-1.9,15.5c-1.2,1.6-3.9,2.8-6.1,3c-4.7,0.5-9.5,0.7-14.2,0.6h-41.7l0,21.6
	c-4.5-0.8-8.7-0.9-12.7-2.2c-9.8-3.2-18-8.9-23.8-17.7C347,107,349.5,96.8,354,91z M364.9,149.5c10.1,0,18.6,9.1,18.4,19.7
	c-0.2,11.3-9.2,20.2-20,19.9s-18.4-8.4-18.2-19.5C345.3,157.5,353.3,149.4,364.9,149.5z M324.4,287.3c0.1,5.8-4,12.8-12.2,12.8
	h-61.4v0.3l-61.8,0c-6.4,0-11-3.8-12.4-10.2c-1.4-6.6,1-12.4,6.3-14.9c1.3-0.6,2.8-1,4.3-1c41.3-0.1,82.7-0.2,124-0.3
	C319.1,274,324.2,278.8,324.4,287.3z M219.9,149.7c9.7,0.5,17.7,9.5,17.4,19.8s-9.8,20.4-19,20c-9.9-0.5-20-8-18.9-20.7
	C198.9,158.1,208.4,149,219.9,149.7z M308.8,169c0.6,10.4-7.8,20.5-17.5,20.4c-10.3-0.2-18.8-8.1-19.6-18.4
	c-0.8-10.4,7.4-20.1,16.9-21C301.4,148.8,308.7,158,308.8,169L308.8,169z M516,704c-39-0.1-78-0.3-117-0.3c-62,0-124,0.1-186,0.1
	c-11.6,0-23.2,0.3-34.9,0.2c-29.4-0.3-52.4-21.4-58.4-48.3c-0.7-3.4-1-6.9-1-10.4V197.6c0-14.4-0.3-28.8,0-43.1
	c0.5-25.2,11.1-45,32.5-58.8c9.1-5.9,19.8-9,30.7-8.8c39.6,0.1,79.2,0.1,118.9,0c5.3,0,9.5,1.6,12,6.5c2.5,4.7,2.3,10.4-0.4,15
	c-2.4,4.2-6.8,4.7-11.1,4.7H186.8c-15.8,0-35.3,12.1-36.7,32.6c-0.9,13.8-0.9,27.7-0.9,41.5c-0.1,81.9-0.1,163.7-0.1,245.6
	c0,60.1,0,120.2-0.1,180.4c0,2.6,0.8,3.4,3.3,4.3c22.5,7.5,35.4,23.2,38.8,46.5c0.6,4.4,0.1,9,0.1,14c5.1,0,10.7,0,16.3,0
	c102.7-0.2,205.4-0.5,308.2-0.8c8.3,0,13.9,5.6,14,14.1C529.6,699.1,524.5,704,516,704z M449.4,632.2L449.4,632.2L449.4,632.2
	c-33-0.1-65.9-0.1-99-0.1c-6.2,0-10.2-2.7-12.2-7.9c-2.6-6.8-1.8-12.4,3.2-16.2c2.5-1.9,5.6-3.1,8.8-3.2c25.7-0.1,51.5,0.2,77.2,0.2
	c35.6,0,71.2-0.1,106.8-0.2c4.2,0.1,8.4-0.2,12.5-1c8-1.8,13.5-9,13.4-17.1c0.1-41.4,0.2-82.7,0.3-124.1c0-2.7,0.3-5.5,0.8-8.1
	c0.5-2.4,1.5-4.6,3-6.5c5.2-6.6,14.8-7.7,21.4-2.5c3.5,2.7,4.5,6.5,4.5,10.6c0.1,29.7,0.1,59.5,0.1,89.2c0,15.2,0.2,30.5-0.7,45.7
	c-1.5,23.4-21,41.5-44.4,41.3C513.2,632.1,481.3,632.2,449.4,632.2z M624.8,702.4c-3.7,1-7.6,1.5-11.5,1.5c-14,0.1-28,0.1-42-0.2
	c-8.4-0.1-12-4.9-11.7-14.6c0.2-7,5.4-11.8,12.7-11.8c11.8,0,23.5-0.2,35.2,0.1c20.5,0.6,35.4-18.2,35.3-34.7
	c-0.4-35.4-0.3-70.7-0.3-106.1c0-24.1,0.1-48.2,0.1-72.4c0-33.5-0.2-67-0.2-100.5c0-58.1,0-116.2-0.1-174.3
	c0-13.6-0.2-27.2-0.8-40.8c-0.7-14.8-8.2-25.8-21.3-32.5c-3.9-1.9-8.2-2.9-12.6-2.9c-29.4-0.2-58.7-0.2-88.1-0.2
	c-6.4,0-12.8,0.1-19.1-0.2c-9.5-0.5-15.5-8.8-13.2-18.1c1-4.7,5.2-8.1,10-8c38.5,0,77,0.1,115.5,0.3c10.5,0.1,20,3.8,28.6,9.7
	c14,9.4,24,23.7,28,40.1c1.2,4.8,1.9,9.8,1.9,14.7c0.1,81.9,0.1,163.7,0.1,245.6h0c0,81.8,0,163.7,0.1,245.6
	C671.3,671.5,652.6,695.4,624.8,702.4z"/>
<path d="M191.1,678.1c5.1,0,10.7,0,16.3,0c102.7-0.2,205.4-0.5,308.2-0.8c8.3,0,13.9,5.6,14,14.1c0,7.7-5.1,12.6-13.6,12.6
	c-39-0.1-78-0.3-117-0.3c-62,0-124,0-186,0.1c-11.6,0-23.2,0.3-34.9,0.2c-29.4-0.2-52.4-21.4-58.4-48.3c-0.7-3.4-1-6.9-1-10.4
	c0-149.2,0-298.5,0-447.7c0-14.4-0.3-28.8,0-43.1c0.5-25.2,11.1-45,32.5-58.8c9.1-5.9,19.8-9,30.7-8.8c39.6,0.1,79.2,0.1,118.9,0
	c5.3,0,9.5,1.6,12,6.5c2.5,4.7,2.3,10.4-0.4,15c-2.4,4.2-6.8,4.7-11.1,4.7c-26.5,0.1-53,0.1-79.5,0c-11.6,0-23.3,0-34.9,0
	c-15.8,0-35.3,12.1-36.7,32.6c-0.9,13.8-0.9,27.7-0.9,41.5C149,269.3,149,351.1,149,433c0,60.1,0,120.2-0.1,180.4
	c0,2.6,0.8,3.4,3.3,4.3c22.5,7.5,35.4,23.2,38.8,46.5C191.7,668.5,191.1,673,191.1,678.1z"/>
<path d="M476.8,348.3c6.9-6.6,13.8-13.4,20.9-19.8c5.3-4.7,10.6-9.6,16.6-13.3c18.7-11.6,38.7-11.8,57.8-2.4
	c19.4,9.5,29.6,26.3,30.3,48.3c0.7,21.7-8.8,38.1-24.7,52c-15.8,13.8-30.7,28.6-46,43c-16,15-32.1,30-48.2,45
	c-17,16-34,32-51.1,47.9c-5.3,4.9-11,9.4-16.3,14.3c-1.3,1.3-2.3,2.9-2.9,4.6c-2.2,4.6-5.6,6.6-10.7,6.6c-26.7-0.1-53.5-0.1-80.2,0
	c-4.6,0-9.2,0.4-13.8,0.6c-5.1,0.2-6.6-1.6-5.2-6.6s3.3-10.2,5-15.2c6.5-20,13-39.9,19.6-59.9c2.3-6.8,4.3-13.8,7.4-20.2
	c1.5-3.1,5.2-5.2,7.9-7.7c23.1-20.8,46.3-41.4,69.4-62.3c11.2-10.2,22-20.7,32.9-31.1c1-1.1,1.5-2.4,1.5-3.8c0-51,0.1-102-0.1-153
	c-0.1-24.7-0.7-49.5-1-74.2c-0.1-6.9,5-13.3,11.3-14.3c8-1.2,15.5,3.3,17.4,10.7c0.5,1.9,0.8,3.9,0.8,5.9
	c0.2,66.5,0.3,133,0.4,199.4v5.1L476.8,348.3z M422.8,519.3c13.3-12.7,26.1-25.1,39.1-37.3c19.4-18.4,38.9-36.6,58.3-55
	c14-13.3,28-26.7,41.7-40.3c11.2-11.2,10.8-11.4,10.5-26.5c0-3.9-1.4-7.7-4.1-10.6c-3.1-3.4-6.2-6.8-9.5-10
	c-4.2-4.2-9.1-6.8-15.4-5.8c-8.3,1.3-14.8,6.1-20.9,11.1c-10.4,8.5-20.6,17.5-30.6,26.4c-19.1,17.1-38.1,34.4-57.1,51.7
	c-12.2,11-24.3,22.1-36.4,33.2l-19.6,18C393.5,489.2,408,504.1,422.8,519.3L422.8,519.3z M341.5,545.9c2.2-0.2,4.2-0.6,6.3-0.6
	c4.6,0,9.2,0.2,13.8,0.2c11.1,0,22.2-0.2,33.3-0.1c4.1,0.1,3.9-3.6,5.6-5.6c0.3-0.4-0.3-2-1-2.7c-12.7-13.4-25.5-26.7-38.2-40
	c-0.6-0.6-1.3-1.2-2-1.7L341.5,545.9z"/>
<path d="M671.2,397.2c0,81.9,0,163.7,0,245.6c0,28.7-18.6,52.6-46.4,59.6c-3.7,1-7.6,1.5-11.5,1.5c-14,0.1-28,0.1-42-0.2
	c-8.4-0.1-12-4.9-11.7-14.6c0.2-7,5.4-11.8,12.7-11.8c11.8,0,23.5-0.2,35.2,0.1c20.5,0.6,35.4-18.2,35.3-34.7
	c-0.4-35.4-0.3-70.7-0.3-106.1c0-24.1,0.1-48.2,0.1-72.4c0-33.5-0.1-67-0.2-100.5c0-58.1-0.1-116.2-0.1-174.3
	c0-13.6-0.2-27.2-0.8-40.8c-0.7-14.8-8.2-25.8-21.3-32.5c-3.9-1.9-8.2-2.9-12.6-2.9c-29.4-0.3-58.7-0.2-88.1-0.2
	c-6.4,0-12.8,0.1-19.1-0.2c-9.5-0.5-15.5-8.8-13.2-18.1c1-4.7,5.2-8.1,10-8c38.5,0,77,0,115.5,0.3c10.5,0.1,20,3.8,28.6,9.7
	c14,9.4,24,23.7,28,40.1c1.2,4.8,1.9,9.8,1.9,14.7C671.2,233.5,671.2,315.3,671.2,397.2L671.2,397.2z"/>
<path d="M449.4,632.2c-33,0-66,0-99,0c-6.2,0-10.2-2.7-12.2-7.9c-2.6-6.8-1.8-12.4,3.2-16.2c2.5-1.9,5.6-3.1,8.8-3.2
	c25.7-0.1,51.5,0.2,77.2,0.2c35.6,0,71.2-0.1,106.8-0.2c4.2,0.1,8.4-0.2,12.5-1c8-1.8,13.5-9,13.4-17.1c0.1-41.3,0.2-82.7,0.3-124.1
	c0-2.7,0.3-5.5,0.8-8.1c1.6-8.3,9.6-13.6,17.9-12c2.4,0.5,4.6,1.5,6.5,3c3.5,2.7,4.5,6.5,4.5,10.6c0.1,29.7,0.1,59.5,0.1,89.2
	c0,15.2,0.2,30.5-0.7,45.7c-1.5,23.4-21,41.5-44.4,41.3C513.1,632.1,481.3,632.3,449.4,632.2L449.4,632.2z"/>
<path d="M302.6,350.8c-38.1,0-76.2,0-114.3,0c-9,0-12.2-4.5-12.5-11.9c-0.5-10.3,5.9-14.1,12.9-14c44,0.2,88,0.3,132,0.3
	c28.5,0,57-0.2,85.5-0.2c4.7,0,9.5,0.2,14.2,0.6c3.6,0.2,6.7,2.5,8.1,5.8c3.9,8.7,1,16.8-7,19c-1,0.3-1.9,0.4-2.9,0.4
	C379.9,350.9,341.2,350.9,302.6,350.8z"/>
<path d="M573.8,253.6c0,7.6,0.1,14.4,0,21.3c-0.1,9.1-5.5,14.7-13.8,14.7c-9.3,0-15.1-5.6-15.3-14.6c-0.1-5.9-0.3-11.7-0.5-17.6
	c0-1.1-0.2-2.2-0.4-3.8c-8.3,0-16.7,0-25,0c-2.4,0.1-4.7,0-7.1-0.4c-6.7-1.5-9-7.2-8.6-13.1c0.5-6.3,3.2-11.1,11.2-11.6
	c7.5-0.5,15-0.2,22.5-0.3c2.5,0,5,0,7.7,0V216c0-5-0.2-10,0-15c0.3-9,5.2-14.3,14.1-15.4c7.4-1,15.1,5.8,15.2,13.6
	c0.1,9.5,0,19,0,29h7.9c6.4,0,12.7-0.1,19.1,0c4.5,0.1,8.4,3,9.8,7.2c4.2,12.5-3.3,18.6-13,18.2
	C589.8,253.3,582.1,253.6,573.8,253.6z"/>
<path d="M261.5,370.6c24.6,0,49.2,0,73.9,0c5.1-0.1,9.8,3,11.7,7.8c2.1,5.6,1.4,12-2.8,14.7c-3.5,2.1-7.4,3.3-11.5,3.4
	c-32.9,0.2-65.7,0.1-98.6,0.1c-15.2,0-30.5,0-45.7,0.1c-7.2,0-11.8-4.4-12-11.9c-0.2-8.3,1.9-12.1,7.9-13.8c1.1-0.3,2.2-0.4,3.3-0.4
	C212.2,370.6,236.8,370.6,261.5,370.6L261.5,370.6z"/>
<path d="M248.9,446.4c-20.4,0-40.7,0.1-61.1,0c-7.5,0-12.1-5.2-11.8-12.8c0.3-8.8,4.5-12.8,13.3-12.8c38.6,0,77.2,0,115.8,0
	c2.7,0,5.5,0.3,8.1,0.7c7.8,1.3,10.6,5.9,10.3,13.1c-0.3,7.6-5.3,12.1-12.9,12.1c-13.4,0.1-26.7,0-40.1,0h-21.7V446.4z"/>
<path d="M250.8,300.3h-61.8c-6.3,0-11-3.8-12.4-10.2c-1.4-6.6,1-12.4,6.3-14.9c1.3-0.6,2.8-1,4.3-1c41.3-0.1,82.7-0.2,124-0.3
	c7.9,0,13,4.9,13.2,13.3c0.1,5.8-4,12.8-12.2,12.8h-61.4L250.8,300.3z"/>
<path d="M388.6,113.1v21.6c-4.5-0.8-8.7-0.9-12.7-2.2c-9.8-3.2-18-8.9-23.8-17.7c-5.1-7.6-2.6-18,2-23.7c2.7-3.4,6.8-4.1,10.8-4.1
	c25-0.1,50-0.1,75-0.1c5.5,0,10,1.9,12.5,7.1c2.6,5.5,1.6,10.8-1.9,15.5c-1.2,1.7-3.9,2.8-6.1,3c-4.7,0.5-9.5,0.7-14.2,0.6
	C416.5,113.2,402.8,113.1,388.6,113.1z"/>
<path d="M225.9,566.8c-12.9,0-25.7,0-38.6,0c-5.6,0-9.6-2.6-11-8.2c-1.2-4.9-1.8-10.2,1.8-14.2c1.9-2.1,5.2-4,7.9-4
	c21.7-0.2,43.4,0.1,65.2,0.2c4.5,0,9,0.3,13.5,0.1c8-0.2,12.5,6,12.3,13c-0.2,8-4.6,12.7-12.1,12.9c-6.5,0.2-13,0.1-19.5,0.1
	L225.9,566.8L225.9,566.8z"/>
<path d="M210.2,506.9c-7.4,0-14.7,0-22.1,0s-12.5-5.4-12.4-12.9c0.2-8.4,5-13.3,12.7-13.2c14.6,0.1,29.2,0,43.8,0.1
	c6.9,0.1,11.5,4.1,12.7,10.8c1.2,6.3-2.3,12.5-8.3,14.7c-1.5,0.5-3.1,0.7-4.8,0.7C224.7,507.1,217.4,507,210.2,506.9L210.2,506.9z"
	/>
<path d="M345.1,169.6c0.2-12.1,8.2-20.2,19.8-20.2c10.1,0,18.6,9.1,18.4,19.7c-0.2,11.3-9.1,20.2-20,19.9S344.9,180.7,345.1,169.6z"
	/>
<path d="M199.4,168.8c-0.5-10.8,9-19.8,20.6-19.2c9.7,0.5,17.7,9.6,17.4,19.8s-9.8,20.5-19,20C208.4,189,198.3,181.5,199.4,168.8z"
	/>
<path d="M308.8,169c0.6,10.3-7.8,20.5-17.6,20.5c-10.3-0.2-18.8-8.1-19.6-18.4c-0.8-10.5,7.4-20.2,16.9-21
	C301.4,148.8,308.7,158.1,308.8,169z"/>
<path class="st0" d="M422.8,519.3c-14.8-15.2-29.3-30.1-44.1-45.2l19.6-18c12.1-11.1,24.2-22.2,36.4-33.2c19-17.3,38-34.5,57.1-51.7
	c10-9,20.1-17.9,30.6-26.4c6.1-5,12.6-9.8,20.9-11.1c6.3-1,11.2,1.6,15.4,5.8c3.3,3.2,6.4,6.7,9.5,10c2.6,2.9,4.1,6.7,4.1,10.6
	c0.4,15.1,0.7,15.4-10.5,26.5c-13.6,13.7-27.6,27-41.7,40.3c-19.4,18.4-38.9,36.6-58.3,55C448.9,494.2,436.1,506.6,422.8,519.3z"/>
<path class="st0" d="M341.5,545.9l17.8-50.5c0.7,0.5,1.4,1.1,2,1.7c12.8,13.3,25.5,26.7,38.2,40c0.6,0.7,1.3,2.3,1,2.7
	c-1.7,2-1.5,5.7-5.6,5.6c-11.1-0.1-22.2,0.1-33.3,0.1c-4.6,0-9.2-0.2-13.8-0.2C345.8,545.3,343.7,545.7,341.5,545.9z"/>
</svg>
